<svg xmlns="http://www.w3.org/2000/svg" viewBox="0 0 64 64" role="img" aria-label="SafeGuardian">
  <defs>
    <linearGradient id="bg" x1="0" y1="0" x2="0" y2="1">
      <stop offset="0%" stop-color="#081630"/>
      <stop offset="100%" stop-color="#0e2448"/>
    </linearGradient>
    <linearGradient id="shield" x1="0" y1="0" x2="0" y2="1">
      <stop offset="0%" stop-color="#14b8a6"/>
      <stop offset="100%" stop-color="#2563eb"/>
    </linearGradient>
  </defs>
  <rect width="64" height="64" rx="14" fill="url(#bg)"/>
  <path d="M32 12 L18 18 V30 C18 40 24 47 32 52 C40 47 46 40 46 30 V18 Z" fill="url(#shield)"/>
  <rect x="29" y="24" width="6" height="18" rx="3" fill="#fff"/>
  <rect x="23" y="30" width="18" height="6" rx="3" fill="#fff"/>
  <path d="M38 36 C38 34 39 33 40 33 C41 33 42 34 42 36 C42 38 40 40 40 40 C40 40 38 38 38 36 Z" fill="#fff" opacity="0.9"/>
</svg>
